HIERARCHY
ROOT Character1_Hips
{
  OFFSET -21.6049 96.2641 -11.9879
  CHANNELS 6 Xposition Yposition Zposition Zrotation Xrotation Yrotation
  JOINT Character1_Spine
  {
    OFFSET 0 8.754 -1.339
    CHANNELS 3 Zrotation Xrotation Yrotation
    JOINT Character1_Spine1
    {
      OFFSET 0 10.855 -0.645
      CHANNELS 3 Zrotation Xrotation Yrotation
      JOINT Character1_LeftShoulder
      {
        OFFSET 1.467 27.745 1.178
        CHANNELS 3 Zrotation Xrotation Yrotation
        JOINT Character1_LeftArm
        {
          OFFSET 18.486 -1.858 0.275
          CHANNELS 3 Zrotation Xrotation Yrotation
          JOINT Character1_LeftForeArm
          {
            OFFSET 31.798 2.36 2.921
            CHANNELS 3 Zrotation Xrotation Yrotation
            JOINT Character1_LeftHand
            {
              OFFSET 29.001 1.642 2.112
              CHANNELS 3 Zrotation Xrotation Yrotation
              End Site
              {
                OFFSET 0.269758 0.141128 0.89614
              }
            }
            JOINT L_Radius_RIGMESH
            {
              OFFSET 0.592911 0.209926 -0.435177
              CHANNELS 3 Zrotation Xrotation Yrotation
              End Site
              {
                OFFSET 0 0 0
              }
            }
          }
          JOINT L_Humerus_RIGMESH
          {
            OFFSET 0.000383861 -0.000257932 -6.47351e-005
            CHANNELS 3 Zrotation Xrotation Yrotation
            End Site
            {
              OFFSET 0 0 0
            }
          }
        }
        JOINT L_Shoulder_RIGMESH
        {
          OFFSET 3.24498e-005 -0.000608592 -0.000527677
          CHANNELS 3 Zrotation Xrotation Yrotation
          End Site
          {
            OFFSET 0 0 0
          }
        }
      }
      JOINT Character1_RightShoulder
      {
        OFFSET -1.467 27.745 1.178
        CHANNELS 3 Zrotation Xrotation Yrotation
        JOINT Character1_RightArm
        {
          OFFSET -18.486 -1.858 0.275
          CHANNELS 3 Zrotation Xrotation Yrotation
          JOINT Character1_RightForeArm
          {
            OFFSET -31.798 2.35964 2.92082
            CHANNELS 3 Zrotation Xrotation Yrotation
            JOINT Character1_RightHand
            {
              OFFSET -29.0007 1.64167 2.112
              CHANNELS 3 Zrotation Xrotation Yrotation
              End Site
              {
                OFFSET 161.773 0.141827 0.896322
              }
            }
            JOINT R_Radius_RIGMESH
            {
              OFFSET 104.095 0.21029 -0.434995
              CHANNELS 3 Zrotation Xrotation Yrotation
              End Site
              {
                OFFSET 0 0 0
              }
            }
          }
          JOINT R_Humerus_RIGMESH
          {
            OFFSET 39.9064 -0.000257932 -6.47351e-005
            CHANNELS 3 Zrotation Xrotation Yrotation
            End Site
            {
              OFFSET 0 0 0
            }
          }
        }
        JOINT R_Shoulder_RIGMESH
        {
          OFFSET -3.24498e-005 -0.000608592 -0.000527677
          CHANNELS 3 Zrotation Xrotation Yrotation
          End Site
          {
            OFFSET 0 0 0
          }
        }
      }
      JOINT Character1_Neck
      {
        OFFSET 0 30.836 0.626
        CHANNELS 3 Zrotation Xrotation Yrotation
        JOINT Character1_Head
        {
          OFFSET 0 8.074 3.498
          CHANNELS 3 Zrotation Xrotation Yrotation
          End Site
          {
            OFFSET 0 -0.00153379 1.54668e-005
          }
        }
        JOINT Neck_RIGMESH
        {
          OFFSET -0.186913 0.321166 -1.40345
          CHANNELS 3 Zrotation Xrotation Yrotation
          End Site
          {
            OFFSET 0 0 0
          }
        }
      }
      JOINT Torso_RIGMESH
      {
        OFFSET 0 -0.000828813 -0.000380861
        CHANNELS 3 Zrotation Xrotation Yrotation
        End Site
        {
          OFFSET 0 0 0
        }
      }
    }
    JOINT Spine_RIGMESH
    {
      OFFSET -0.00268501 0.0142813 0.0584757
      CHANNELS 3 Zrotation Xrotation Yrotation
      End Site
      {
        OFFSET 0 0 0
      }
    }
  }
  JOINT Character1_RightUpLeg
  {
    OFFSET -9.035 -4.63425 1.845
    CHANNELS 3 Zrotation Xrotation Yrotation
    JOINT Character1_RightLeg
    {
      OFFSET -0.919521 -40.345 1.155
      CHANNELS 3 Zrotation Xrotation Yrotation
      JOINT Character1_RightFoot
      {
        OFFSET 1.95452 -45.2655 -4.18888
        CHANNELS 3 Zrotation Xrotation Yrotation
        JOINT Character1_RightToeBase
        {
          OFFSET 1.87056 -6.69517 14.7145
          CHANNELS 3 Zrotation Xrotation Yrotation
          End Site
          {
            OFFSET 0 0 0
          }
        }
        JOINT R_Talus_RIGMESH
        {
          OFFSET 8 -7.75529 4.18888
          CHANNELS 3 Zrotation Xrotation Yrotation
          End Site
          {
            OFFSET 0 0 0
          }
        }
      }
      JOINT R_Tibia_RIGMESH
      {
        OFFSET 0 0 0
        CHANNELS 3 Zrotation Xrotation Yrotation
        End Site
        {
          OFFSET 0 0 0
        }
      }
    }
    JOINT R_Femur_RIGMESH
    {
      OFFSET 0 0 0
      CHANNELS 3 Zrotation Xrotation Yrotation
      End Site
      {
        OFFSET 0 0 0
      }
    }
  }
  JOINT Character1_LeftUpLeg
  {
    OFFSET 9.035 -4.63425 1.845
    CHANNELS 3 Zrotation Xrotation Yrotation
    JOINT Character1_LeftLeg
    {
      OFFSET 0.919521 -40.345 1.155
      CHANNELS 3 Zrotation Xrotation Yrotation
      JOINT Character1_LeftFoot
      {
        OFFSET -1.95452 -45.2655 -4.18888
        CHANNELS 3 Zrotation Xrotation Yrotation
        JOINT Character1_LeftToeBase
        {
          OFFSET -1.87056 -6.69517 14.7145
          CHANNELS 3 Zrotation Xrotation Yrotation
          End Site
          {
            OFFSET 0 0 0
          }
        }
        JOINT L_Talus_RIGMESH
        {
          OFFSET -8 -7.75529 4.18888
          CHANNELS 3 Zrotation Xrotation Yrotation
          End Site
          {
            OFFSET 0 0 0
          }
        }
      }
      JOINT L_Tibia_RIGMESH
      {
        OFFSET 0 0 0
        CHANNELS 3 Zrotation Xrotation Yrotation
        End Site
        {
          OFFSET 0 0 0
        }
      }
    }
    JOINT L_Femur_RIGMESH
    {
      OFFSET 0 0 0
      CHANNELS 3 Zrotation Xrotation Yrotation
      End Site
      {
        OFFSET 0 0 0
      }
    }
  }
  JOINT Pelvis_RIGMESH
  {
    OFFSET 0 0 0
    CHANNELS 3 Zrotation Xrotation Yrotation
    End Site
    {
      OFFSET 0 0 0
    }
  }
}
MOTION
Frames:	8
Frame Time:	0.00833333
-17.0854 63.8983 -27.016 8.1696 31.2501 -9.05641 -2.38542e-015 0 -1.59028e-015 20.4056 32.7572 -8.9653 1.7031 -13.1501 3.96503 -50.5366 -32.5708 12.0131 -0.12507 -0.0739426 -55.2133 23.5303 -3.02882 -11.9805 3.97569e-015 0 -0 -2.64834e-031 4.77083e-015 3.18055e-015 -6.36111e-015 0 1.59028e-015 -14.3584 -14.8536 10.9256 28.6428 -8.36018 21.4359 0.0352629 -0.0199079 40.0073 -28.0292 6.97705 9.9424 0 0 -6.36111e-015 3.97569e-015 9.54166e-015 2.38542e-015 -9.93923e-016 -6.36111e-015 3.57812e-015 3.18055e-015 3.18055e-015 -3.18055e-015 -7.55215 -44.537 14.9326 -13.7924 10.7604 8.2634 3.18055e-015 3.18055e-015 -3.18055e-015 -9.72986 11.7767 6.34563 146.854 -76.3562 149.013 179.439 82.5305 -178.855 -7.19959 -27.3936 -10.5203 0.00285656 -13.4633 -0.0116831 -2.48481e-016 0 -0 -8.44835e-016 6.36111e-015 -7.20594e-016 1.98785e-016 -6.36111e-015 2.34814e-015 145.649 -69.2087 146.121 -179.186 76.0096 178.415 7.16206 -20.4944 6.03999 -0.00013392 -15.6811 -0.00598751 -1.78906e-015 3.18055e-015 7.95139e-016 -1.59028e-015 -9.54166e-015 -7.95139e-016 -3.97569e-016 0 -1.39149e-015 -2.38542e-015 0 -1.59028e-015 
-17.1704 64.2253 -27.0619 7.96979 31.3587 -8.91601 7.95139e-016 -6.36111e-015 7.95139e-016 19.9214 32.4281 -8.85603 1.80712 -13.2182 3.98342 -50.5358 -32.5439 12.0308 -0.12502 -0.0741958 -55.1154 23.5529 -3.03958 -11.9911 3.18055e-015 3.18055e-015 -3.18055e-015 1.59028e-015 1.59028e-015 3.18055e-015 -3.18055e-015 -3.18055e-015 4.77083e-015 -14.2772 -14.591 10.7648 28.5775 -8.53711 21.4423 0.0349132 -0.0200572 39.4926 -28.0322 6.87885 9.82351 -1.59028e-015 -3.18055e-015 -0 2.38542e-015 0 7.95139e-016 -1.19271e-015 -9.54166e-015 4.77083e-015 0 0 -1.59028e-015 -7.30209 -44.5503 14.9751 -13.6996 10.7302 8.18416 0 0 -1.59028e-015 -9.63398 11.7388 6.29648 146.089 -76.5731 148.089 179.404 83.095 -178.825 -7.21762 -27.2137 -10.5886 0.00285949 -13.4493 -0.0116824 6.83322e-017 4.96962e-017 -0 -8.94531e-016 -3.18055e-015 -9.93923e-017 1.98785e-016 3.18055e-015 1.20513e-015 145.549 -69.4494 145.862 -179.163 76.4344 178.398 7.18543 -20.5149 6.11119 -0.000135131 -15.6922 -0.00598784 4.96962e-016 0 7.95139e-016 9.93923e-016 0 -7.95139e-016 -1.19271e-015 0 -1.09332e-015 7.95139e-016 -6.36111e-015 7.95139e-016 
-17.2665 64.5526 -27.1209 7.77078 31.4685 -8.75532 -1.59028e-015 0 7.95139e-016 19.5636 32.0385 -8.72766 1.81066 -13.1131 3.91927 -50.641 -32.5759 11.8881 -0.124965 -0.0744467 -55.0173 23.5209 -2.98863 -11.9811 -4.77083e-015 -1.59028e-015 -0 -0 0 9.54166e-015 4.77083e-015 1.27222e-014 -7.95139e-015 -14.3695 -14.8774 10.589 28.6966 -8.30797 21.0587 0.034589 -0.0201836 39.0523 -27.9603 6.82119 9.7112 1.59028e-015 3.18055e-015 6.36111e-015 -0 0 3.97569e-015 2.98177e-015 3.18055e-015 -4.37326e-015 -3.18055e-015 -3.18055e-015 -0 -7.24085 -44.5148 14.8904 -13.6631 10.7232 8.07175 -3.18055e-015 -3.18055e-015 -0 -9.63404 11.7211 6.27245 145.325 -76.8224 147.161 179.36 83.6888 -178.787 -7.24259 -27.0269 -10.6584 0.0028594 -13.4497 -0.0116824 -2.48481e-017 9.93923e-017 1.59028e-015 3.23025e-016 -3.18055e-015 1.98785e-016 -2.98177e-016 3.18055e-015 3.16813e-016 145.425 -69.7003 145.597 -179.138 76.8655 178.379 7.21468 -20.5456 6.17224 -0.0001308 -15.6523 -0.00598667 2.5842e-015 0 7.95139e-016 1.78906e-015 0 3.97569e-016 -3.97569e-016 1.59028e-015 -6.95746e-016 -1.59028e-015 0 7.95139e-016 
-17.3733 64.8843 -27.1885 7.56321 31.5763 -8.57125 -1.59028e-015 -1.59028e-014 -0 19.3657 31.6001 -8.56835 1.8115 -12.8624 3.76632 -50.892 -32.652 11.5466 -0.124895 -0.0747056 -54.9132 23.4397 -2.8585 -11.9546 1.59028e-015 3.18055e-015 -3.18055e-015 -3.18055e-015 1.59028e-015 3.18055e-015 1.59028e-015 -3.18055e-015 1.59028e-015 -14.5894 -15.5604 10.3866 28.9665 -7.77513 20.0886 0.0664754 -0.0202944 38.6629 -27.789 6.7809 9.5907 -1.59028e-015 3.18055e-015 6.36111e-015 1.03368e-014 -3.18055e-015 -0 -1.98785e-016 0 -3.27995e-015 -3.18055e-015 0 1.59028e-015 -7.37902 -44.4497 14.6289 -13.6099 10.7329 7.93359 -3.18055e-015 0 1.59028e-015 -9.6347 11.7059 6.24639 144.521 -77.1037 146.181 179.304 84.3112 -178.736 -7.27371 -26.8358 -10.7333 0.00285878 -13.4527 -0.0116825 2.79541e-016 9.93923e-017 -1.59028e-015 -1.26725e-015 0 -1.49089e-016 1.23464e-016 9.54166e-015 -1.6062e-015 145.269 -69.9615 145.312 -179.111 77.3017 178.357 7.24788 -20.5824 6.22534 -0.000120481 -15.5572 -0.00598389 -2.28602e-015 -1.59028e-015 -7.95139e-016 -5.96354e-016 0 3.97569e-016 7.95139e-016 0 -9.93923e-017 -1.59028e-015 -1.59028e-014 -0 
-17.4835 65.2188 -27.2583 7.3718 31.6844 -8.384 0 3.18055e-015 -0 19.1985 31.128 -8.39291 1.81142 -12.5632 3.58376 -51.1914 -32.7429 11.1403 -0.12483 -0.0749439 -54.8178 23.3311 -2.68326 -11.9166 -5.56597e-015 -1.59028e-015 -6.36111e-015 1.59028e-015 -1.59028e-015 -0 1.59028e-015 -3.18055e-015 1.59028e-015 -14.8519 -16.3756 10.1721 29.3756 -7.10919 18.8826 0.0335138 -0.0204066 38.2654 -27.5842 6.75536 9.47022 -9.54166e-015 6.36111e-015 -0 5.1684e-015 6.36111e-015 2.38542e-015 4.96962e-016 0 8.94531e-016 -3.18055e-015 -3.18055e-015 1.59028e-015 -7.60087 -44.3724 14.2781 -13.4666 10.7526 7.77713 -3.18055e-015 -3.18055e-015 1.59028e-015 -9.54074 11.6755 6.19118 143.688 -77.3928 145.19 179.233 84.9428 -178.67 -7.30705 -26.6386 -10.8048 0.0028571 -13.4607 -0.0116829 3.60297e-016 0 -0 -2.48481e-016 0 -3.97569e-016 5.46658e-016 9.54166e-015 -1.3418e-015 145.104 -70.2237 145.045 -179.082 77.7311 178.334 7.28305 -20.6198 6.27961 -0.000108176 -15.4436 -0.00598061 2.18663e-015 0 -7.95139e-016 1.59028e-015 6.36111e-015 -0 7.95139e-016 6.36111e-015 5.96354e-016 0 3.18055e-015 -0 
-17.5896 65.5545 -27.3241 7.22137 31.7951 -8.21387 4.41391e-032 3.18055e-015 -7.95139e-016 18.9328 30.6375 -8.21622 1.81225 -12.3125 3.43079 -51.4423 -32.8191 10.7998 -0.124784 -0.0751394 -54.743 23.217 -2.49704 -11.8723 3.18055e-015 -1.59028e-015 3.18055e-015 -7.95139e-016 0 -0 1.59028e-015 -3.18055e-015 -1.59028e-015 -15.0718 -17.0586 9.96039 29.7497 -6.56408 17.6814 0.0366815 -0.0205118 37.8895 -27.412 6.74196 9.35784 3.18055e-015 -6.36111e-015 3.18055e-015 1.98785e-015 0 -7.95139e-016 -2.48481e-015 -6.36111e-015 -1.3418e-015 0 3.18055e-015 -0 -7.79255 -44.2983 13.9249 -13.2109 10.7861 7.59483 0 3.18055e-015 -0 -9.32915 11.6232 6.09845 142.861 -77.6639 144.25 179.143 85.5613 -178.586 -7.33887 -26.4332 -10.8644 0.00285381 -13.4764 -0.0116837 1.67725e-016 -9.93923e-017 1.59028e-015 1.39149e-015 -6.36111e-015 -0 -2.48481e-017 3.18055e-015 -1.98785e-016 144.954 -70.4793 144.839 -179.053 78.1426 178.31 7.31828 -20.653 6.34421 -9.78772e-005 -15.3485 -0.00597787 -1.98785e-016 -7.95139e-016 -7.95139e-016 7.95139e-016 0 -1.98785e-015 -3.97569e-016 3.18055e-015 -4.96962e-016 4.41391e-032 3.18055e-015 -7.95139e-016 
-17.684 65.8896 -27.3797 7.13689 31.9111 -8.08125 -8.82781e-032 3.18055e-015 1.59028e-015 18.4379 30.1438 -8.05325 1.8158 -12.2074 3.36665 -51.5475 -32.851 10.6568 -0.124774 -0.0752677 -54.7013 23.1194 -2.33391 -11.8268 1.59028e-015 1.59028e-015 -6.36111e-015 -0 0 6.36111e-015 -3.18055e-015 0 1.59028e-015 -15.164 -17.345 9.76603 30.0337 -6.33286 16.8106 0.03654 -0.0206211 37.4953 -27.3387 6.7381 9.26178 -1.59028e-015 3.18055e-015 3.18055e-015 4.77083e-015 9.54166e-015 -7.95139e-016 6.50709e-016 3.18055e-015 7.40783e-016 -3.18055e-015 -6.36111e-015 1.59028e-015 -7.84166 -44.2445 13.6565 -12.8824 10.835 7.38586 -3.18055e-015 -6.36111e-015 1.59028e-015 -9.05011 11.559 5.98309 142.074 -77.8951 143.423 179.031 86.1479 -178.479 -7.36562 -26.2178 -10.9036 0.0028484 -13.5022 -0.011685 -1.86361e-017 0 -1.59028e-015 -1.2921e-015 -9.54166e-015 4.96962e-016 -1.98785e-016 9.54166e-015 -3.72721e-016 144.848 -70.7188 144.739 -179.024 78.5235 178.286 7.35162 -20.6764 6.42827 -9.35609e-005 -15.3086 -0.00597673 2.28602e-015 2.38542e-015 -0 2.18663e-015 0 3.97569e-016 -1.19271e-015 -3.18055e-015 1.78906e-015 -8.82781e-032 3.18055e-015 1.59028e-015 
-17.758 66.2169 -27.4268 7.19793 32.0467 -8.01559 7.95139e-016 3.18055e-015 -7.95139e-016 17.3353 29.6382 -7.7683 2.13718 -12.2406 3.3725 -51.4906 -32.7495 10.7108 -0.124789 -0.0753417 -54.6854 23.0342 -2.19485 -11.7747 0 0 -6.36111e-015 -3.18055e-015 3.18055e-015 -3.18055e-015 1.76556e-031 3.18055e-015 -3.18055e-015 -14.828 -17.1831 9.59299 30.179 -6.45422 16.3597 0.0363906 -0.0207348 37.0814 -27.3374 6.77897 9.19362 -3.18055e-015 -3.18055e-015 -3.18055e-015 -2.38542e-015 -3.18055e-015 2.38542e-015 1.66482e-015 -6.36111e-015 -1.68967e-015 0 0 -0 -7.39229 -44.2159 13.5495 -12.5016 10.8897 7.16769 0 0 -0 -8.71816 11.4903 5.85284 141.639 -78.0788 143.058 178.897 86.6723 -178.349 -7.38058 -25.9848 -10.9059 0.00283877 -13.5481 -0.0116872 -3.01283e-016 4.96962e-017 -1.59028e-015 -4.47266e-016 0 -0 6.4605e-016 3.18055e-015 9.44227e-016 144.835 -70.9397 144.873 -178.997 78.8642 178.264 7.38308 -20.6832 6.55588 -9.50477e-005 -15.3223 -0.00597712 2.38542e-015 0 -1.59028e-015 7.95139e-016 -6.36111e-015 -3.97569e-016 7.95139e-016 -3.18055e-015 -0 7.95139e-016 3.18055e-015 -7.95139e-016 
